<svg xmlns="http://www.w3.org/2000/svg" xmlns:xlink="http://www.w3.org/1999/xlink" width="500" zoomAndPan="magnify" viewBox="0 0 375 374.999991" height="500" preserveAspectRatio="xMidYMid meet" version="1.0"><defs><g/><clipPath id="9017b4012c"><path d="M 59.734375 150.945312 L 122.5625 150.945312 L 122.5625 224.082031 L 59.734375 224.082031 Z M 59.734375 150.945312 " clip-rule="nonzero"/></clipPath><clipPath id="9d69790cb7"><path d="M 91.148438 150.945312 L 122.5625 169.222656 L 122.5625 205.777344 L 91.148438 224.054688 L 59.734375 205.777344 L 59.734375 169.222656 Z M 91.148438 150.945312 " clip-rule="nonzero"/></clipPath><clipPath id="8cd169e719"><path d="M 66.296875 158.582031 L 116 158.582031 L 116 216.441406 L 66.296875 216.441406 Z M 66.296875 158.582031 " clip-rule="nonzero"/></clipPath><clipPath id="b010d66743"><path d="M 91.148438 158.582031 L 116 173.039062 L 116 201.960938 L 91.148438 216.417969 L 66.296875 201.960938 L 66.296875 173.039062 Z M 91.148438 158.582031 " clip-rule="nonzero"/></clipPath><clipPath id="519ee8d6e5"><path d="M 109.097656 169.28125 L 150.542969 169.28125 L 150.542969 205.886719 L 109.097656 205.886719 Z M 109.097656 169.28125 " clip-rule="nonzero"/></clipPath><clipPath id="9ac5ec183d"><path d="M 70.917969 164.0625 L 111.371094 164.0625 L 111.371094 211.148438 L 70.917969 211.148438 Z M 70.917969 164.0625 " clip-rule="nonzero"/></clipPath><clipPath id="d2df8b1c2a"><path d="M 91.144531 164.0625 L 111.371094 175.828125 L 111.371094 199.363281 L 91.144531 211.132812 L 70.917969 199.363281 L 70.917969 175.828125 Z M 91.144531 164.0625 " clip-rule="nonzero"/></clipPath><clipPath id="8853428cee"><path d="M 91.144531 182.585938 L 111.785156 182.585938 L 111.785156 187.597656 L 91.144531 187.597656 Z M 91.144531 182.585938 " clip-rule="nonzero"/></clipPath><clipPath id="74db995170"><path d="M 91 170 L 114 170 L 114 195 L 91 195 Z M 91 170 " clip-rule="nonzero"/></clipPath><clipPath id="078d725ffc"><path d="M 83.722656 176.003906 L 98.960938 164.0625 L 113.75 182.929688 L 98.511719 194.871094 Z M 83.722656 176.003906 " clip-rule="nonzero"/></clipPath><clipPath id="b197eb7ccb"><path d="M 91.339844 170.03125 L 113.726562 182.898438 L 98.488281 194.84375 Z M 91.339844 170.03125 " clip-rule="nonzero"/></clipPath><clipPath id="3f3958c45d"><path d="M 91.144531 183.429688 L 111.785156 183.429688 L 111.785156 205.691406 L 91.144531 205.691406 Z M 91.144531 183.429688 " clip-rule="nonzero"/></clipPath><clipPath id="8d3d3dce05"><path d="M 91.144531 205.691406 L 99.445312 205.691406 L 99.445312 211.132812 L 91.144531 211.132812 Z M 91.144531 205.691406 " clip-rule="nonzero"/></clipPath><clipPath id="03d2843ef8"><path d="M 91.144531 172.003906 L 94.117188 172.003906 L 94.117188 183.429688 L 91.144531 183.429688 Z M 91.144531 172.003906 " clip-rule="nonzero"/></clipPath><clipPath id="939ee07128"><path d="M 91.28125 179.453125 L 98.289062 179.453125 L 98.289062 184.894531 L 91.28125 184.894531 Z M 91.28125 179.453125 " clip-rule="nonzero"/></clipPath><clipPath id="cac0c79691"><path d="M 89.929688 169.976562 L 92.632812 169.976562 L 92.632812 172.261719 L 89.929688 172.261719 Z M 89.929688 169.976562 " clip-rule="nonzero"/></clipPath><clipPath id="8bb83526fa"><path d="M 91.28125 169.976562 L 92.632812 172.261719 L 89.929688 172.261719 Z M 91.28125 169.976562 " clip-rule="nonzero"/></clipPath><clipPath id="1164d07d29"><path d="M 88.167969 169.976562 L 91.144531 169.976562 L 91.144531 181.402344 L 88.167969 181.402344 Z M 88.167969 169.976562 " clip-rule="nonzero"/></clipPath><clipPath id="856992a698"><path d="M 107 175 L 116 175 L 116 184 L 107 184 Z M 107 175 " clip-rule="nonzero"/></clipPath><clipPath id="84ae86955b"><path d="M 111.542969 175.339844 L 115.75 179.546875 L 111.546875 183.75 L 107.339844 179.539062 Z M 111.542969 175.339844 " clip-rule="nonzero"/></clipPath><clipPath id="94bbb325d9"><path d="M 83.824219 185.089844 L 110.691406 185.089844 L 110.691406 191.351562 L 83.824219 191.351562 Z M 83.824219 185.089844 " clip-rule="nonzero"/></clipPath><clipPath id="f0c3174c75"><path d="M 107 183 L 118 183 L 118 195 L 107 195 Z M 107 183 " clip-rule="nonzero"/></clipPath><clipPath id="980b4e30b0"><path d="M 111.332031 183.429688 L 117.539062 186.101562 L 113.898438 194.5625 L 107.691406 191.890625 Z M 111.332031 183.429688 " clip-rule="nonzero"/></clipPath><clipPath id="de21cb8dd7"><path d="M 91.28125 204.871094 L 100.808594 204.871094 L 100.808594 208.621094 L 91.28125 208.621094 Z M 91.28125 204.871094 " clip-rule="nonzero"/></clipPath></defs><rect x="-37.5" width="450" fill="#ffffff" y="-37.499999" height="449.999989" fill-opacity="1"/><rect x="-37.5" width="450" fill="#000000" y="-37.499999" height="449.999989" fill-opacity="1"/><g clip-path="url(#9017b4012c)"><g clip-path="url(#9d69790cb7)"><path fill="#ffffff" d="M 59.734375 150.945312 L 122.5625 150.945312 L 122.5625 224.082031 L 59.734375 224.082031 Z M 59.734375 150.945312 " fill-opacity="1" fill-rule="nonzero"/></g></g><g clip-path="url(#8cd169e719)"><g clip-path="url(#b010d66743)"><path fill="#000000" d="M 66.296875 158.582031 L 116 158.582031 L 116 216.441406 L 66.296875 216.441406 Z M 66.296875 158.582031 " fill-opacity="1" fill-rule="nonzero"/></g></g><g clip-path="url(#519ee8d6e5)"><path fill="#000000" d="M 109.097656 169.28125 L 150.5625 169.28125 L 150.5625 205.886719 L 109.097656 205.886719 Z M 109.097656 169.28125 " fill-opacity="1" fill-rule="nonzero"/></g><g clip-path="url(#9ac5ec183d)"><g clip-path="url(#d2df8b1c2a)"><path fill="#ffffff" d="M 70.917969 164.0625 L 111.371094 164.0625 L 111.371094 211.148438 L 70.917969 211.148438 Z M 70.917969 164.0625 " fill-opacity="1" fill-rule="nonzero"/></g></g><g clip-path="url(#8853428cee)"><path fill="#ffffff" d="M 91.144531 182.585938 L 111.785156 182.585938 L 111.785156 187.597656 L 91.144531 187.597656 Z M 91.144531 182.585938 " fill-opacity="1" fill-rule="nonzero"/></g><g clip-path="url(#74db995170)"><g clip-path="url(#078d725ffc)"><g clip-path="url(#b197eb7ccb)"><path fill="#000000" d="M 83.722656 176.003906 L 98.960938 164.0625 L 113.703125 182.867188 L 98.464844 194.8125 Z M 83.722656 176.003906 " fill-opacity="1" fill-rule="nonzero"/></g></g></g><g clip-path="url(#3f3958c45d)"><path fill="#000000" d="M 91.144531 183.429688 L 111.785156 183.429688 L 111.785156 205.683594 L 91.144531 205.683594 Z M 91.144531 183.429688 " fill-opacity="1" fill-rule="nonzero"/></g><g clip-path="url(#8d3d3dce05)"><path fill="#000000" d="M 91.144531 205.691406 L 99.453125 205.691406 L 99.453125 211.132812 L 91.144531 211.132812 Z M 91.144531 205.691406 " fill-opacity="1" fill-rule="nonzero"/></g><g clip-path="url(#03d2843ef8)"><path fill="#000000" d="M 91.144531 172.003906 L 94.117188 172.003906 L 94.117188 183.425781 L 91.144531 183.425781 Z M 91.144531 172.003906 " fill-opacity="1" fill-rule="nonzero"/></g><g clip-path="url(#939ee07128)"><path fill="#000000" d="M 91.28125 179.453125 L 98.292969 179.453125 L 98.292969 184.894531 L 91.28125 184.894531 Z M 91.28125 179.453125 " fill-opacity="1" fill-rule="nonzero"/></g><g clip-path="url(#cac0c79691)"><g clip-path="url(#8bb83526fa)"><path fill="#000000" d="M 89.929688 169.976562 L 92.632812 169.976562 L 92.632812 172.261719 L 89.929688 172.261719 Z M 89.929688 169.976562 " fill-opacity="1" fill-rule="nonzero"/></g></g><g clip-path="url(#1164d07d29)"><path fill="#ffffff" d="M 88.167969 169.976562 L 91.144531 169.976562 L 91.144531 181.402344 L 88.167969 181.402344 Z M 88.167969 169.976562 " fill-opacity="1" fill-rule="nonzero"/></g><g clip-path="url(#856992a698)"><g clip-path="url(#84ae86955b)"><path fill="#000000" d="M 111.542969 175.339844 L 115.746094 179.539062 L 111.542969 183.742188 L 107.339844 179.539062 Z M 111.542969 175.339844 " fill-opacity="1" fill-rule="nonzero"/></g></g><g clip-path="url(#94bbb325d9)"><path fill="#ffffff" d="M 83.824219 185.089844 L 110.695312 185.089844 L 110.695312 191.351562 L 83.824219 191.351562 Z M 83.824219 185.089844 " fill-opacity="1" fill-rule="nonzero"/></g><g clip-path="url(#f0c3174c75)"><g clip-path="url(#980b4e30b0)"><path fill="#000000" d="M 111.332031 183.429688 L 117.539062 186.101562 L 113.894531 194.5625 L 107.691406 191.890625 Z M 111.332031 183.429688 " fill-opacity="1" fill-rule="nonzero"/></g></g><g clip-path="url(#de21cb8dd7)"><path fill="#000000" d="M 91.28125 204.871094 L 100.800781 204.871094 L 100.800781 208.621094 L 91.28125 208.621094 Z M 91.28125 204.871094 " fill-opacity="1" fill-rule="nonzero"/></g><g fill="#ffffff" fill-opacity="1"><g transform="translate(115.751891, 201.71782)"><g><path d="M 25.890625 -8.609375 C 25.097656 -5.554688 23.71875 -3.28125 21.75 -1.78125 C 19.789062 -0.28125 17.429688 0.46875 14.671875 0.46875 C 10.234375 0.46875 7 -0.921875 4.96875 -3.703125 C 2.9375 -6.492188 1.921875 -9.84375 1.921875 -13.75 C 1.921875 -18.082031 3.113281 -21.472656 5.5 -23.921875 C 7.894531 -26.367188 10.96875 -27.59375 14.71875 -27.59375 C 17.351562 -27.59375 19.609375 -26.921875 21.484375 -25.578125 C 23.359375 -24.234375 24.675781 -22.265625 25.4375 -19.671875 L 21.921875 -18.84375 C 21.328125 -20.726562 20.421875 -22.144531 19.203125 -23.09375 C 17.992188 -24.050781 16.484375 -24.53125 14.671875 -24.53125 C 11.710938 -24.53125 9.46875 -23.554688 7.9375 -21.609375 C 6.40625 -19.660156 5.640625 -17.054688 5.640625 -13.796875 C 5.640625 -10.015625 6.441406 -7.203125 8.046875 -5.359375 C 9.660156 -3.523438 11.765625 -2.609375 14.359375 -2.609375 C 16.484375 -2.609375 18.207031 -3.179688 19.53125 -4.328125 C 20.863281 -5.472656 21.796875 -7.203125 22.328125 -9.515625 Z M 25.890625 -8.609375 "/></g></g></g><g fill="#ffffff" fill-opacity="1"><g transform="translate(143.120927, 201.71782)"><g><path d="M 5.875 0 L 2.53125 0 L 2.53125 -27.140625 L 5.875 -27.140625 Z M 5.875 0 "/></g></g></g><g fill="#ffffff" fill-opacity="1"><g transform="translate(151.540745, 201.71782)"><g><path d="M 5.875 0 L 2.53125 0 L 2.53125 -19.640625 L 5.875 -19.640625 Z M 5.875 -23.359375 L 2.53125 -23.359375 L 2.53125 -27.140625 L 5.875 -27.140625 Z M 5.875 -23.359375 "/></g></g></g><g fill="#ffffff" fill-opacity="1"><g transform="translate(159.960564, 201.71782)"><g><path d="M 18.625 -6.796875 C 18.1875 -4.285156 17.195312 -2.445312 15.65625 -1.28125 C 14.113281 -0.113281 12.367188 0.46875 10.421875 0.46875 C 7.566406 0.46875 5.363281 -0.460938 3.8125 -2.328125 C 2.257812 -4.203125 1.484375 -6.679688 1.484375 -9.765625 C 1.484375 -12.328125 1.929688 -14.375 2.828125 -15.90625 C 3.722656 -17.445312 4.84375 -18.523438 6.1875 -19.140625 C 7.53125 -19.765625 8.941406 -20.078125 10.421875 -20.078125 C 12.441406 -20.078125 14.171875 -19.550781 15.609375 -18.5 C 17.046875 -17.457031 17.929688 -15.914062 18.265625 -13.875 L 15.046875 -13.375 C 14.710938 -14.695312 14.171875 -15.691406 13.421875 -16.359375 C 12.679688 -17.023438 11.726562 -17.359375 10.5625 -17.359375 C 8.707031 -17.359375 7.296875 -16.695312 6.328125 -15.375 C 5.367188 -14.0625 4.890625 -12.21875 4.890625 -9.84375 C 4.890625 -7.425781 5.359375 -5.5625 6.296875 -4.25 C 7.242188 -2.9375 8.609375 -2.28125 10.390625 -2.28125 C 11.816406 -2.28125 12.941406 -2.6875 13.765625 -3.5 C 14.585938 -4.320312 15.101562 -5.554688 15.3125 -7.203125 Z M 18.625 -6.796875 "/></g></g></g><g fill="#ffffff" fill-opacity="1"><g transform="translate(178.909781, 201.71782)"><g><path d="M 18.8125 0 L 14.71875 0 L 8.1875 -10.046875 L 5.828125 -7.8125 L 5.828125 0 L 2.5 0 L 2.5 -27.140625 L 5.828125 -27.140625 L 5.828125 -11.671875 L 13.71875 -19.640625 L 18.046875 -19.640625 L 10.53125 -12.359375 Z M 18.8125 0 "/></g></g></g><g fill="#ffffff" fill-opacity="1"><g transform="translate(197.351842, 201.71782)"><g><path d="M 2.8125 0 L 2.8125 -27.140625 L 21.375 -27.140625 L 21.375 -22.5625 L 8.25 -22.5625 L 8.25 -16.109375 L 19.59375 -16.109375 L 19.59375 -11.53125 L 8.25 -11.53125 L 8.25 0 Z M 2.8125 0 "/></g></g></g><g fill="#ffffff" fill-opacity="1"><g transform="translate(220.501717, 201.71782)"><g><path d="M 1.515625 -10.125 C 1.515625 -11.84375 1.9375 -13.507812 2.78125 -15.125 C 3.625 -16.738281 4.828125 -17.96875 6.390625 -18.8125 C 7.960938 -19.65625 9.710938 -20.078125 11.640625 -20.078125 C 14.617188 -20.078125 17.054688 -19.109375 18.953125 -17.171875 C 20.847656 -15.242188 21.796875 -12.820312 21.796875 -9.90625 C 21.796875 -6.914062 20.832031 -4.4375 18.90625 -2.46875 C 16.988281 -0.507812 14.578125 0.46875 11.671875 0.46875 C 9.878906 0.46875 8.160156 0.0546875 6.515625 -0.765625 C 4.867188 -1.597656 3.625 -2.796875 2.78125 -4.359375 C 1.9375 -5.921875 1.515625 -7.84375 1.515625 -10.125 Z M 6.859375 -9.8125 C 6.859375 -7.875 7.316406 -6.382812 8.234375 -5.34375 C 9.160156 -4.3125 10.304688 -3.796875 11.671875 -3.796875 C 13.003906 -3.796875 14.132812 -4.3125 15.0625 -5.34375 C 15.988281 -6.382812 16.453125 -7.882812 16.453125 -9.84375 C 16.453125 -11.769531 15.988281 -13.25 15.0625 -14.28125 C 14.132812 -15.320312 13.003906 -15.84375 11.671875 -15.84375 C 10.304688 -15.84375 9.160156 -15.320312 8.234375 -14.28125 C 7.316406 -13.25 6.859375 -11.757812 6.859375 -9.8125 Z M 6.859375 -9.8125 "/></g></g></g><g fill="#ffffff" fill-opacity="1"><g transform="translate(243.651591, 201.71782)"><g><path d="M 7.703125 0 L 2.5 0 L 2.5 -19.671875 L 7.3125 -19.671875 L 7.3125 -16.859375 C 8.144531 -18.179688 8.890625 -19.046875 9.546875 -19.453125 C 10.203125 -19.867188 10.960938 -20.078125 11.828125 -20.078125 C 12.984375 -20.078125 14.117188 -19.75 15.234375 -19.09375 L 13.609375 -14.578125 C 12.753906 -15.148438 11.941406 -15.4375 11.171875 -15.4375 C 10.453125 -15.4375 9.835938 -15.234375 9.328125 -14.828125 C 8.816406 -14.421875 8.414062 -13.691406 8.125 -12.640625 C 7.84375 -11.585938 7.703125 -9.398438 7.703125 -6.078125 Z M 7.703125 0 "/></g></g></g><g fill="#ffffff" fill-opacity="1"><g transform="translate(258.400152, 201.71782)"><g><path d="M 11.75 -19.671875 L 11.75 -15.515625 L 8.1875 -15.515625 L 8.1875 -7.59375 C 8.1875 -6 8.21875 -5.066406 8.28125 -4.796875 C 8.351562 -4.535156 8.507812 -4.316406 8.75 -4.140625 C 8.988281 -3.960938 9.28125 -3.875 9.625 -3.875 C 10.101562 -3.875 10.800781 -4.039062 11.71875 -4.375 L 12.15625 -0.328125 C 10.945312 0.203125 9.570312 0.46875 8.03125 0.46875 C 6.9375 0.46875 5.96875 0.242188 5.125 -0.203125 C 4.289062 -0.648438 3.722656 -1.304688 3.421875 -2.171875 C 3.117188 -3.035156 2.96875 -4.625 2.96875 -6.9375 L 2.96875 -15.515625 L 0.578125 -15.515625 L 0.578125 -19.671875 L 2.96875 -19.671875 L 2.96875 -23.578125 L 8.1875 -26.609375 L 8.1875 -19.671875 Z M 11.75 -19.671875 "/></g></g></g><g fill="#ffffff" fill-opacity="1"><g transform="translate(271.020626, 201.71782)"><g><path d="M 2.71875 -22.328125 L 2.71875 -27.140625 L 7.921875 -27.140625 L 7.921875 -22.328125 Z M 2.71875 0 L 2.71875 -19.671875 L 7.921875 -19.671875 L 7.921875 0 Z M 2.71875 0 "/></g></g></g><g fill="#ffffff" fill-opacity="1"><g transform="translate(281.550026, 201.71782)"><g><path d="M 0.46875 -19.671875 L 3.328125 -19.671875 L 3.328125 -21.15625 C 3.328125 -22.800781 3.503906 -24.023438 3.859375 -24.828125 C 4.222656 -25.640625 4.867188 -26.300781 5.796875 -26.8125 C 6.734375 -27.332031 7.9375 -27.59375 9.40625 -27.59375 C 10.875 -27.59375 12.3125 -27.363281 13.71875 -26.90625 L 13.046875 -23.328125 C 12.210938 -23.523438 11.410156 -23.625 10.640625 -23.625 C 9.890625 -23.625 9.347656 -23.445312 9.015625 -23.09375 C 8.691406 -22.738281 8.53125 -22.054688 8.53125 -21.046875 L 8.53125 -19.671875 L 12.4375 -19.671875 L 12.4375 -15.578125 L 8.53125 -15.578125 L 8.53125 0 L 3.328125 0 L 3.328125 -15.578125 L 0.46875 -15.578125 Z M 0.46875 -19.671875 "/></g></g></g><g fill="#ffffff" fill-opacity="1"><g transform="translate(294.170501, 201.71782)"><g><path d="M 0.265625 -19.671875 L 5.796875 -19.671875 L 10.5 -5.6875 L 15.078125 -19.671875 L 20.46875 -19.671875 L 12.296875 2.6875 C 11.703125 4.164062 11.09375 5.253906 10.46875 5.953125 C 9.84375 6.648438 9.070312 7.15625 8.15625 7.46875 C 7.25 7.789062 6.171875 7.953125 4.921875 7.953125 C 3.910156 7.953125 2.925781 7.851562 1.96875 7.65625 L 1.515625 3.609375 C 2.316406 3.753906 3.050781 3.828125 3.71875 3.828125 C 4.925781 3.828125 5.820312 3.472656 6.40625 2.765625 C 6.988281 2.054688 7.429688 1.144531 7.734375 0.03125 Z M 0.265625 -19.671875 "/></g></g></g></svg>